<svg width="16" height="22" viewBox="0 0 16 22" fill="none" xmlns="http://www.w3.org/2000/svg">
<path d="M8.00049 3.00049V0.000488281L4.00049 4.00049L8.00049 8.00049V5.00049C11.3105 5.00049 14.0005 7.69049 14.0005 11.0005C14.0005 12.0105 13.7505 12.9705 13.3005 13.8005L14.7605 15.2605C15.5405 14.0305 16.0005 12.5705 16.0005 11.0005C16.0005 6.58049 12.4205 3.00049 8.00049 3.00049V3.00049ZM8.00049 17.0005C4.69049 17.0005 2.00049 14.3105 2.00049 11.0005C2.00049 9.99049 2.25049 9.03049 2.70049 8.20049L1.24049 6.74049C0.460488 7.97049 0.000488281 9.43049 0.000488281 11.0005C0.000488281 15.4205 3.58049 19.0005 8.00049 19.0005V22.0005L12.0005 18.0005L8.00049 14.0005V17.0005V17.0005Z" fill="#7CB845"/>
</svg>
