<svg width="25" height="30" viewBox="0 0 25 30" fill="none" xmlns="http://www.w3.org/2000/svg">
<g clip-path="url(#clip0_7_156)">
<path d="M23.7364 10.309C23.5654 10.4417 20.5462 12.1429 20.5462 15.9257C20.5462 20.3012 24.388 21.8491 24.5029 21.8874C24.4853 21.9818 23.8926 24.0073 22.4774 26.0712C21.2155 27.8874 19.8975 29.7007 17.8926 29.7007C15.8877 29.7007 15.3717 28.5361 13.0572 28.5361C10.8017 28.5361 9.99975 29.739 8.16585 29.739C6.33194 29.739 5.05233 28.0584 3.58108 25.9945C1.8769 23.571 0.5 19.8058 0.5 16.2324C0.5 10.5007 4.22678 7.46088 7.89459 7.46088C9.84349 7.46088 11.4681 8.74049 12.6916 8.74049C13.8563 8.74049 15.6725 7.38422 17.8897 7.38422C18.73 7.38422 21.7491 7.46088 23.7364 10.309ZM16.8371 4.95769C17.7541 3.86973 18.4027 2.36015 18.4027 0.850564C18.4027 0.641227 18.385 0.428942 18.3467 0.257935C16.8548 0.313954 15.0799 1.25155 14.0096 2.49282C13.1693 3.44811 12.385 4.95769 12.385 6.48791C12.385 6.71789 12.4233 6.94786 12.441 7.02157C12.5354 7.03926 12.6887 7.0599 12.842 7.0599C14.1806 7.0599 15.8641 6.16359 16.8371 4.95769Z" fill="#535353"/>
</g>
<defs>
<clipPath id="clip0_7_156">
<rect width="24" height="29.484" fill="white" transform="translate(0.5 0.257935)"/>
</clipPath>
</defs>
</svg>
